<svg width="3333" height="3056" viewBox="0 0 3333 3056" fill="none" xmlns="http://www.w3.org/2000/svg">
<g>
<g>
<path d="M1230.75 2582.08C1520.26 2473.41 1809.22 2475.18 2098.74 2587.39C2125.09 2632.79 2141.1 2682.72 2148.25 2735.18C2153.25 2773.17 2153.25 2812.17 2144.25 2849.16C2132.25 2896.16 2109.25 2935.16 2069.26 2963.15C2038.56 2984.94 2004.92 2990.05 1968.34 2978.49C1956.09 2989.53 1936.92 3011.61 1914.27 3021.15C1876.28 3037.15 1836.28 3041.15 1795.29 3043.15C1697.29 3048.15 1599.3 3050.15 1501.31 3040.15C1460.32 3036.15 1420.32 3028.15 1384.33 3006.15C1382.94 3006.15 1364.54 2991.63 1351.74 2981.74C1293.09 2991.43 1250.41 2959.87 1222.34 2922.16C1191.34 2885.16 1178.35 2838.17 1179.35 2763.17C1181.71 2708.06 1197.09 2647.38 1230.36 2590.87C1230.47 2588.22 1230.61 2585.26 1230.75 2582.08ZM1677.31 2965.92C1660.76 2965.92 1647.35 2979.34 1647.35 2995.89C1647.35 3012.43 1660.76 3025.85 1677.31 3025.85C1693.86 3025.85 1707.27 3012.43 1707.27 2995.89C1707.27 2979.34 1693.86 2965.92 1677.31 2965.92ZM1527.49 2935.96C1510.94 2935.96 1497.53 2949.38 1497.53 2965.93C1497.53 2982.47 1510.94 2995.89 1527.49 2995.89C1544.03 2995.89 1557.45 2982.47 1557.45 2965.93C1557.45 2949.38 1544.03 2935.96 1527.49 2935.96ZM1827.12 2928.76C1810.57 2928.76 1797.16 2942.18 1797.16 2958.73C1797.16 2975.27 1810.57 2988.69 1827.12 2988.69C1843.67 2988.69 1857.08 2975.27 1857.08 2958.73C1857.08 2942.18 1843.67 2928.76 1827.12 2928.76ZM1437.6 2853.57C1425.19 2853.57 1415.13 2863.63 1415.13 2876.04C1415.13 2888.45 1425.19 2898.51 1437.6 2898.51C1450.01 2898.51 1460.07 2888.45 1460.07 2876.04C1460.07 2863.63 1450.01 2853.57 1437.6 2853.57ZM1917.01 2853.57C1904.6 2853.57 1894.53 2863.63 1894.53 2876.04C1894.53 2888.45 1904.6 2898.51 1917.01 2898.51C1929.42 2898.51 1939.48 2888.45 1939.48 2876.04C1939.48 2863.63 1929.42 2853.57 1917.01 2853.57ZM1363.67 2579C1352.67 2592.2 1351.57 2606.5 1349.37 2618.59C1342.77 2666.99 1349.37 2713.19 1376.86 2754.99C1401.06 2792.38 1435.16 2814.38 1481.36 2806.68C1500.06 2804.48 1517.66 2797.88 1524.25 2779.18C1531.95 2759.39 1522.05 2743.99 1509.96 2729.69C1501.16 2719.79 1490.16 2712.09 1479.16 2704.39C1469.26 2696.69 1458.26 2690.09 1447.26 2683.49C1417.56 2664.79 1395.56 2639.49 1380.16 2608.7C1374.66 2601 1370.26 2591.1 1363.67 2579ZM1986.13 2579C1979.53 2591.1 1975.13 2601 1969.63 2608.7C1954.23 2639.49 1932.23 2664.79 1902.53 2683.49C1891.53 2690.09 1880.54 2696.69 1870.64 2704.39C1859.64 2712.09 1848.64 2719.79 1839.84 2729.69C1827.74 2743.99 1817.84 2759.39 1825.54 2779.18C1832.14 2797.88 1849.74 2804.48 1868.44 2806.68C1914.63 2814.38 1948.73 2792.38 1972.93 2754.99C2000.43 2713.19 2007.03 2666.99 2000.43 2618.59C1998.23 2606.5 1997.13 2592.2 1986.13 2579ZM1231.47 2423.81C1518.76 2316.15 1805.51 2317.25 2092.81 2427.11C2091.15 2456.47 2089.7 2485.83 2088.26 2515.2C2088.26 2516.63 2087.39 2523.34 2086.24 2531.51C1802.1 2428.57 1517.49 2428.09 1233.35 2530.05C1233.93 2518.58 1234.34 2509.67 1234.34 2507.2C1233.97 2479.4 1233.02 2451.61 1231.47 2423.81ZM1674.46 749.577C1822.53 1061.11 2083.62 1278.54 2439.44 1321.87C2461.53 1337.19 2485.03 1349.12 2509.18 1359.19L2508.86 1359.33C2574.82 1504.45 2577.41 1649.2 2516.62 1794.29C2500.17 1787.57 2484.02 1779.61 2468.22 1770.27C2420.22 1742.27 2381.23 1705.28 2350.23 1658.28L2330.23 1628.28C2329.23 1636.28 2328.23 1640.28 2328.23 1644.28C2328.18 1645.92 2328.11 1647.55 2328.04 1649.18C2327.28 1649.41 2326.67 1649.64 2326.32 1650C2282.32 1692.99 2230.33 1725.99 2179.33 1759.99C2168.34 1766.99 2157.34 1775.98 2147.34 1784.98C2138.34 1793.98 2128.34 1803.98 2133.34 1817.98C2138.34 1831.98 2151.34 1838.98 2164.33 1840.98C2206.33 1846.98 2246.33 1843.98 2284.32 1823.98C2288.73 1821.53 2292.89 1818.91 2296.79 1816.13C2287.99 1842.22 2277.44 1867.89 2265.24 1893.26C2242.24 1940.25 2218.24 1987.25 2192.25 2033.24C2140.25 2126.23 2108.25 2225.23 2099.26 2332.21C2098.03 2347.16 2096.93 2362.11 2095.91 2377.05C1806.78 2269.94 1517.15 2268.92 1228 2373.99C1225.54 2344.4 1222.34 2314.81 1218.34 2285.22C1208.34 2208.23 1185.35 2135.23 1149.35 2067.24C1121.35 2013.25 1092.35 1960.25 1065.36 1906.26C1050.8 1876.08 1038.14 1845.28 1027.68 1813.85C1032.47 1817.49 1037.66 1820.87 1043.26 1823.98C1081.26 1843.98 1121.25 1846.98 1163.25 1840.98C1176.25 1838.98 1189.25 1831.98 1194.25 1817.98C1199.24 1803.98 1189.25 1793.98 1180.25 1784.98C1170.25 1775.98 1159.25 1766.99 1148.25 1759.99C1097.25 1725.99 1045.26 1692.99 1001.26 1650C1000.34 1649.07 997.701 1649 994.935 1647.41C994.711 1643.71 994.521 1640 994.364 1636.28C994.364 1635.28 993.364 1634.28 991.364 1631.28C985.365 1639.28 980.366 1647.28 975.366 1654.28C938.888 1713.77 892.014 1756.56 836.514 1784.61C773.777 1640.36 773.669 1496.47 836.192 1352.22C845.415 1347.91 854.49 1343.3 863.377 1338.31C870.737 1333.71 878.098 1329.11 885.458 1324.51C1253.56 1288.21 1523.08 1068.08 1674.46 749.577ZM1519.48 2191.34C1500.42 2191.34 1484.97 2206.8 1484.97 2225.86C1484.97 2244.92 1500.42 2260.38 1519.48 2260.38C1538.54 2260.38 1554 2244.92 1554 2225.86C1554 2206.8 1538.54 2191.34 1519.48 2191.34ZM1853.08 2191.34C1834.02 2191.34 1818.57 2206.8 1818.57 2225.86C1818.57 2244.92 1834.02 2260.38 1853.08 2260.38C1872.14 2260.38 1887.6 2244.92 1887.6 2225.86C1887.6 2206.8 1872.14 2191.34 1853.08 2191.34ZM1898.28 2247.22C1895.28 2245.23 1899.25 2248.21 1899.28 2248.22C1898.93 2247.78 1898.59 2247.33 1898.25 2246.87C1898.26 2246.99 1898.27 2247.11 1898.28 2247.22ZM1356.28 1719.92L1686.04 2201.87L2015.79 1719.92L1686.04 1237.98L1356.28 1719.92ZM1979.48 1719.92L1686.04 2148.81L1392.59 1719.92L1686.04 1291.03L1979.48 1719.92ZM1456.06 1719.92L1686.04 2077.66L1916.01 1719.92L1686.04 1362.19L1456.06 1719.92ZM1377.89 1983.5C1358.83 1983.5 1343.37 1998.95 1343.37 2018.01C1343.37 2037.08 1358.83 2052.53 1377.89 2052.53C1396.95 2052.53 1412.4 2037.08 1412.4 2018.01C1412.4 1998.95 1396.95 1983.5 1377.89 1983.5ZM1995.63 1983.5C1976.57 1983.5 1961.12 1998.95 1961.12 2018.01C1961.12 2037.08 1976.57 2052.53 1995.63 2052.53C2014.7 2052.53 2030.15 2037.08 2030.15 2018.01C2030.15 1998.95 2014.7 1983.5 1995.63 1983.5ZM1887.51 1719.92L1686.04 2033.33L1484.55 1719.92L1686.04 1406.51L1887.51 1719.92ZM1555.91 1719.92L1686.04 1954.16L1816.17 1719.92L1686.04 1485.69L1555.91 1719.92ZM1795.59 1719.92L1686.04 1917.14L1576.47 1719.92L1686.04 1522.71L1795.59 1719.92ZM1255.23 1805.9C1236.17 1805.9 1220.72 1821.35 1220.72 1840.41C1220.72 1859.47 1236.17 1874.93 1255.23 1874.93C1274.3 1874.93 1289.75 1859.47 1289.75 1840.41C1289.75 1821.35 1274.3 1805.9 1255.23 1805.9ZM2074.04 1804.7C2054.97 1804.7 2039.52 1820.15 2039.52 1839.21C2039.52 1858.28 2054.97 1873.73 2074.04 1873.73C2093.1 1873.73 2108.55 1858.28 2108.55 1839.21C2108.55 1820.15 2093.1 1804.7 2074.04 1804.7ZM1628.58 1719.59L1687.38 1839.59L1746.18 1719.59L1687.38 1599.59L1628.58 1719.59ZM717.846 1396.21C711.696 1413.06 706.37 1429.91 701.867 1446.77C700.61 1446.52 699.31 1446.39 697.979 1446.39C686.948 1446.39 678.005 1455.33 678.005 1466.36C678.005 1475.65 684.345 1483.46 692.933 1485.69C689.588 1503.13 687.125 1520.57 685.541 1538.01C685.353 1538 685.164 1538 684.975 1538C673.943 1538 665 1546.94 665 1557.97C665 1568.49 673.132 1577.11 683.453 1577.89C683.161 1599.07 684.171 1620.26 686.478 1641.44C676.147 1642.21 668.005 1650.84 668.005 1661.36C668.005 1672.39 676.948 1681.34 687.979 1681.34C689.453 1681.34 690.888 1681.18 692.271 1680.87C695.908 1700.53 700.664 1720.18 706.539 1739.83C699.19 1742.78 694 1749.97 694 1758.37C694 1769.4 702.943 1778.35 713.975 1778.35C715.795 1778.35 717.558 1778.1 719.234 1777.64C724.256 1791.13 729.806 1804.62 735.884 1818.11C721.43 1820.84 706.593 1822.88 691.394 1824.26C584.404 1834.26 480.415 1815.27 378.425 1786.27C374.425 1785.27 371.425 1783.27 367.426 1781.27C406.422 1662.28 456.417 1552.29 560.407 1475.3C608.258 1440.33 662.036 1415.53 717.846 1396.21ZM2625.45 1400.02C2655.2 1410.75 2684.28 1422.79 2712.2 1438.3C2810.19 1492.3 2877.18 1572.29 2921.17 1674.28C2935.17 1708.28 2948.17 1743.27 2962.17 1778.27C2957.17 1780.27 2954.17 1783.27 2950.17 1784.27C2862.18 1810.27 2773.19 1827.26 2681.2 1825.26C2662.37 1825.01 2643.72 1823.88 2625.31 1821.7C2631.43 1806.71 2636.9 1791.71 2641.71 1776.72C2643.9 1777.54 2646.27 1778 2648.76 1778C2659.79 1778 2668.73 1769.05 2668.73 1758.02C2668.73 1748.3 2661.78 1740.2 2652.57 1738.41C2656.82 1721.2 2660.21 1703.98 2662.74 1686.76C2663.72 1686.91 2664.73 1686.99 2665.75 1686.99C2676.78 1686.99 2685.72 1678.05 2685.72 1667.01C2685.72 1656.42 2677.47 1647.75 2667.05 1647.08C2668.2 1630.7 2668.57 1614.33 2668.17 1597.95C2678.54 1597.22 2686.73 1588.58 2686.73 1578.02C2686.73 1566.99 2677.79 1558.05 2666.76 1558.05C2666.38 1558.05 2666.02 1558.06 2665.65 1558.08C2663.71 1538.98 2660.71 1519.87 2656.66 1500.78C2666.31 1499.37 2673.72 1491.06 2673.72 1481.01C2673.72 1469.98 2664.78 1461.04 2653.75 1461.04C2651.39 1461.04 2649.13 1461.45 2647.03 1462.2C2641.08 1441.47 2633.89 1420.74 2625.45 1400.02ZM2536.26 1369.7C2547.52 1373.79 2558.87 1377.61 2570.21 1381.31C2579.76 1384.43 2589.27 1387.54 2598.72 1390.73C2661.79 1533.5 2663.51 1675.92 2603.88 1818.67C2580.9 1814.87 2558.33 1809.32 2536.26 1801.69C2596.35 1657.8 2596.35 1513.59 2536.26 1369.7ZM808.542 1364.2C752.19 1507.21 755.179 1650.51 817.507 1793.49C794.722 1803.32 770.61 1810.85 745.28 1816.22L755.873 1811.41C747.505 1793 740.158 1774.6 733.83 1756.2C733.512 1753.26 732.56 1750.52 731.111 1748.1C691.712 1627.88 695.867 1507.84 743.577 1387.57C765.464 1380.24 787.273 1372.76 808.542 1364.2ZM2063.08 1501.34C2044.02 1501.34 2028.57 1516.8 2028.57 1535.86C2028.57 1554.92 2044.02 1570.38 2063.08 1570.38C2082.14 1570.38 2097.6 1554.92 2097.6 1535.86C2097.6 1516.8 2082.14 1501.34 2063.08 1501.34ZM1289.52 1501C1270.45 1501 1255 1516.45 1255 1535.52C1255 1554.58 1270.45 1570.03 1289.52 1570.03C1308.58 1570.03 1324.03 1554.58 1324.03 1535.52C1324.03 1516.45 1308.58 1501 1289.52 1501ZM1951.52 1282C1932.45 1282 1917 1297.45 1917 1316.52C1917 1335.58 1932.45 1351.03 1951.52 1351.03C1970.58 1351.03 1986.03 1335.58 1986.03 1316.52C1986.03 1297.45 1970.58 1282 1951.52 1282ZM1381.52 1279C1362.45 1279 1347 1294.45 1347 1313.52C1347 1332.58 1362.45 1348.03 1381.52 1348.03C1400.58 1348.03 1416.03 1332.58 1416.03 1313.52C1416.03 1294.45 1400.58 1279 1381.52 1279ZM1531.15 712.379C1541.22 715.676 1551.26 719.024 1561.31 722.373C1586.16 730.778 1610.88 736.111 1635.51 738.421C1494.87 1030.23 1252.38 1233.41 923.059 1279.78C924.638 1245.01 927.454 1214.84 931.757 1187.09C1207.22 1101.09 1406.52 931.469 1531.15 712.379ZM1031.49 861.359C1002.82 900.901 977.51 938.629 953.999 982.5C905.974 1072.11 884.914 1170.55 884.506 1276.84C865.614 1275.31 847.505 1273.78 838.379 1273.32C823.346 1272.43 808.33 1271.44 793.332 1270.33C801.119 1161.7 819.875 1094.78 857.701 1004.67C879.309 957.349 910.063 909.357 944.121 861.839C956.869 861.714 969.617 861.551 982.365 861.359H1031.49ZM1803.69 710.657C1927.06 928.461 2124.04 1097.58 2396.1 1184.58C2400.37 1212.18 2403.17 1242.15 2404.75 1276.58C2085.22 1224.48 1849.62 1022.76 1712.18 735.867C1729.23 733.135 1746.26 728.965 1763.29 723.373C1776.83 719.182 1790.26 714.888 1803.69 710.657ZM2345.23 861.359C2352.71 861.359 2360.19 861.384 2367.67 861.422C2407.49 912.23 2444.15 963.938 2468.37 1015C2505.43 1100.33 2522.92 1163.87 2528.4 1269.43C2503.01 1271.12 2477.61 1272.55 2452.22 1274.32C2451.03 1274.32 2447.82 1274.51 2443.37 1274.8C2443.08 1168.14 2422.04 1069.38 2373.87 979.504C2350.96 936.742 2326.33 899.816 2298.55 861.359H2345.23ZM1078.36 0.444336C1083.35 -0.5555 1089.35 0.444291 1094.35 0.444336C1094.35 1.44424 1093.35 2.44434 1093.35 2.44434C1048.36 16.4429 1003.36 29.442 958.367 44.4404C816.381 92.4357 678.395 150.43 550.407 231.422C477.415 277.417 408.421 329.412 353.427 397.405C316.43 442.401 288.433 491.396 277.435 549.391C263.436 619.384 273.435 685.377 320.43 741.371C350.427 778.367 390.424 801.366 436.419 815.364C484.414 830.363 534.409 838.362 584.404 845.361C686.088 858.457 788.366 862.055 890.779 862.104C868.462 895.809 848.055 929.372 828.716 967.058C781.398 1059.26 758.324 1159.57 754.089 1267.17C664.665 1259.32 575.959 1246.88 488.413 1226.32C402.422 1206.33 318.43 1177.33 241.438 1133.33C173.444 1094.34 114.45 1045.34 71.4541 978.349C22.459 902.356 0.461396 819.364 4.46094 728.373C10.4604 588.387 68.4549 471.398 164.445 371.408C237.438 295.416 322.43 238.421 415.421 190.426C550.407 120.433 695.393 73.4373 845.378 41.4404C922.37 25.442 1000.36 14.443 1078.36 0.444336ZM2234.24 1.44434C2239.24 1.44434 2244.24 0.444623 2249.24 1.44434C2408.22 22.4422 2565.21 54.4389 2717.19 107.434C2833.18 147.43 2943.17 197.425 3044.16 268.418C3120.15 321.413 3187.15 383.407 3238.14 460.399C3299.14 552.39 3330.13 654.38 3326.13 765.369C3321.14 895.356 3265.14 999.346 3164.15 1080.34C3090.16 1140.33 3005.17 1177.33 2914.17 1205.33C2805.19 1238.32 2694.2 1255.32 2581.21 1265.32C2576.57 1265.75 2571.94 1266.16 2567.3 1266.55C2565.98 1163.04 2544.8 1067.06 2497.87 979.504C2475.06 936.937 2450.55 900.154 2422.93 861.886C2447.02 862.126 2471.12 862.359 2495.22 862.359C2604.21 861.359 2712.2 854.36 2819.18 834.362C2851.18 828.363 2884.18 820.364 2914.17 808.365C2976.17 785.368 3021.16 744.371 3045.16 681.378C3064.16 629.383 3062.16 577.387 3046.16 524.393C3030.16 471.398 3002.17 426.402 2966.17 385.406C2907.18 317.413 2834.18 264.418 2757.19 218.423C2632.2 143.43 2498.22 87.4359 2359.23 41.4404C2322.23 29.4417 2284.24 18.4422 2247.24 7.44336C2243.24 6.44345 2238.24 4.44402 2234.24 1.44434ZM1569.08 1100C1550.02 1100 1534.57 1115.45 1534.57 1134.52C1534.57 1153.58 1550.02 1169.03 1569.08 1169.03C1588.15 1169.03 1603.6 1153.58 1603.6 1134.52C1603.6 1115.45 1588.15 1100 1569.08 1100ZM1802.29 1100C1783.22 1100 1767.77 1115.45 1767.77 1134.52C1767.77 1153.58 1783.22 1169.03 1802.29 1169.03C1821.35 1169.03 1836.8 1153.58 1836.8 1134.52C1836.8 1115.45 1821.35 1100 1802.29 1100ZM1192.34 743.371C1266.34 680.377 1350.33 661.379 1443.32 686.377C1459.76 690.487 1476.03 695.105 1492.21 700.021C1375.26 901.581 1191.9 1057.99 940.703 1141.2C950.451 1100.14 964.371 1062.05 983.5 1018C1009.91 962.335 1051.08 905.905 1095.03 850.711C1097.27 848.669 1099.35 846.221 1101.35 843.361C1102.48 841.755 1103.62 840.157 1104.76 838.566C1118.59 821.398 1132.6 804.361 1146.43 787.522C1160.71 772.081 1175.98 757.398 1192.34 743.371ZM1889.28 686.377C1939.27 673.378 1990.27 671.379 2041.26 688.377C2093.26 705.375 2136.25 736.372 2173.25 775.368C2175.33 777.55 2177.38 779.753 2179.41 781.972L2179.37 782.004C2241.37 857.504 2307.37 937.004 2344.37 1015C2363.51 1059.06 2377.42 1097.31 2387.16 1138.54C2139.49 1054.49 1958.52 898.753 1842.84 698.685C1858.15 694.212 1873.58 690.027 1889.28 686.377Z" fill="#B15A38"/>
</g>
</g>
</svg>
